# xmcd
#
# Track frame offsets:
#	150
#	18812
#	39452
#	56490
#	75880
#	86162
#	98467
#	116162
#	129922
#	148670
#	165145
#	178785
#	189702
#	204587
#	218802
#
# Disc length: 3164 seconds
#
# Revision: 1
# Processed by: cddbd v1.5.2PL0 Copyright (c) Steve Scherf et al.
# Submitted via: audiograbber 1.83.01
#
DISCID=bc0c5a0f
DTITLE=Various Artist - Goldenvine Prod. Phase VII
DYEAR=1995
DGENRE=Gospel
TTITLE0=The Freemans - At The Shepherd's Side
TTITLE1=Chuck Higginbotham - Nothing In The World
TTITLE2=Lou Hunt - One Valley Closer To The Promised Land
TTITLE3=Mike and Shala White - What's Wrong With Living Right
TTITLE4=Pauline Patterson - God's Got It All In Control
TTITLE5=Jerry Bennett - I Won't Walk Without Jesus
TTITLE6=Spirits Of Harmony - The Last Prayer
TTITLE7=Jennifer Hirkpatrick - If You Need A Broken Life
TTITLE8=The Marshalls - You're Not Over Him
TTITLE9=Dick Pryor - A Light On The Horizon
TTITLE10=Sharon Benson - The King and I
TTITLE11=The Kelly's - What A Glad Day
TTITLE12=The Floyds - When Jesus Comes Again
TTITLE13=The Freemans - The Seed's Alive
TTITLE14=The Freemans - Gloryland Hold On
EXTD=
EXTT0=
EXTT1=
EXTT2=
EXTT3=
EXTT4=
EXTT5=
EXTT6=
EXTT7=
EXTT8=
EXTT9=
EXTT10=
EXTT11=
EXTT12=
EXTT13=
EXTT14=
PLAYORDER=
